<svg width="7" height="12" viewBox="0 0 7 12" fill="none" xmlns="http://www.w3.org/2000/svg">
<path d="M6.49994 6.00006C6.5007 6.13166 6.47548 6.26213 6.42571 6.38396C6.37595 6.5058 6.30262 6.61662 6.20994 6.71006L2.20994 10.7101C2.1167 10.8033 2.00601 10.8773 1.88419 10.9277C1.76237 10.9782 1.6318 11.0042 1.49994 11.0042C1.36808 11.0042 1.23751 10.9782 1.11569 10.9277C0.993869 10.8773 0.883179 10.8033 0.789941 10.7101C0.696702 10.6168 0.622741 10.5061 0.572281 10.3843C0.521821 10.2625 0.49585 10.1319 0.49585 10.0001C0.49585 9.8682 0.52182 9.73763 0.572281 9.61581C0.622741 9.49399 0.696702 9.3833 0.789941 9.29006L4.09994 6.00006L0.919941 2.70006C0.817651 2.60807 0.735442 2.49596 0.678456 2.37075C0.62147 2.24553 0.590933 2.10991 0.588753 1.97236C0.586574 1.8348 0.612799 1.69828 0.66579 1.57132C0.718781 1.44437 0.797398 1.32971 0.896722 1.23453C0.996047 1.13934 1.11394 1.06567 1.24304 1.01813C1.37213 0.970586 1.50965 0.950191 1.64698 0.958219C1.78432 0.966248 1.91852 1.00253 2.0412 1.06479C2.16387 1.12705 2.27238 1.21395 2.35994 1.32006L6.21994 5.32006C6.39626 5.50293 6.49636 5.74606 6.49994 6.00006Z" fill="#111111"/>
</svg>
